<svg id="레이어_1" data-name="레이어 1" xmlns="http://www.w3.org/2000/svg" viewBox="0 0 800 500"><defs><style>.cls-1{fill:#3caea3;}.cls-1,.cls-2,.cls-3,.cls-5,.cls-6{stroke:#000;stroke-miterlimit:10;}.cls-1,.cls-2,.cls-3,.cls-6{stroke-width:6px;}.cls-2{fill:#3d68d3;}.cls-3{fill:#fff1d2;}.cls-4{fill:#722424;}.cls-5,.cls-6{fill:none;}.cls-5{stroke-width:5px;}</style></defs><title>main</title><path class="cls-1" d="M512.5,271.5a111.5,111.5,0,1,0-177,90.23V360.5a65.5,65.5,0,0,1,131,0v1.23A111.35,111.35,0,0,0,512.5,271.5Z"/><path class="cls-2" d="M401,295a65.5,65.5,0,0,0-65.5,65.5v1.23a111.49,111.49,0,0,0,131,0V360.5A65.51,65.51,0,0,0,401,295Z"/><rect class="cls-3" x="386.5" y="274" width="28" height="42" rx="14" ry="14"/><circle class="cls-3" cx="354.45" cy="252" r="11"/><circle class="cls-3" cx="447.54" cy="252" r="11"/><circle class="cls-3" cx="401" cy="247.5" r="47.5"/><path class="cls-4" d="M352.5,244a3,3,0,0,1-3-3v-8c0-29.65,22.57-52,52.5-52,29.26,0,50.5,22.29,50.5,53v4a3,3,0,0,1-1.89,2.79,3.08,3.08,0,0,1-1.11.21,3,3,0,0,1-2.18-.94L430.59,222.4l-28.23,8.47a2.8,2.8,0,0,1-.86.13,3,3,0,0,1-2.91-2.27l-1.91-7.62L380.3,233.4a3,3,0,0,1-1.8.6,2.82,2.82,0,0,1-1.07-.2,3,3,0,0,1-1.88-2.21l-1-5.06L354.42,243.3A3,3,0,0,1,352.5,244Z"/><path d="M402,184c29,0,47.5,22.66,47.5,50v4l-18-19-30,9-3-12-20,15-2-10-24,20v-8c0-27.34,20.5-49,49.5-49m0-6c-31.64,0-55.5,23.64-55.5,55v8a6,6,0,0,0,9.84,4.61l16.25-13.54,0,.11a6,6,0,0,0,3.74,4.42,5.93,5.93,0,0,0,2.15.4,6,6,0,0,0,3.6-1.2l12.77-9.58.81,3.24a6,6,0,0,0,2.85,3.76,6.1,6.1,0,0,0,3,.78,6,6,0,0,0,1.72-.25l26.46-7.94,15.46,16.32A6,6,0,0,0,455.5,238v-4c0-15.09-5.13-29-14.44-39.29C431.27,183.94,417.4,178,402,178Z"/><circle cx="378.5" cy="248" r="5"/><circle cx="422.5" cy="248" r="5"/><path class="cls-5" d="M412.5,268a12,12,0,0,1-24,0"/><line class="cls-6" x1="360.88" y1="196.96" x2="305.5" y2="141.08"/><line class="cls-6" x1="443.21" y1="196.67" x2="499.38" y2="141"/><path d="M228.19,50l4.24,4.24c4.49,4.49,5.31,9.62.18,14.75s-10.42,4.48-14.71.18l-4.44-4.44Zm-7.86,15.9c2.38,2.38,5.15,3,8.65-.53s2.8-6.16.42-8.54l-.47-.47-9.07,9.07Z"/><path d="M242.63,64.47,252,73.81,249,76.74l-5.8-5.8-2.73,2.73,4.93,4.93-3,3-4.93-4.93-3.13,3.13,6,6-3,3L227.9,79.2Z"/><path d="M241.28,88.9l4.43-.44a8.49,8.49,0,0,0,2.08,5.09c1.31,1.31,2.42,1.43,3.21.63s.32-1.94-.42-3.74l-1.08-2.67a6.11,6.11,0,0,1,1-7c2.48-2.47,6.68-2.24,9.81.89a9.7,9.7,0,0,1,2.85,6.73l-4,.46a6.85,6.85,0,0,0-1.9-4.16c-1.09-1.09-2.2-1.33-3-.53s-.2,2.06.59,3.88L256,90.58c1.09,2.56,1,4.87-1.13,7-2.45,2.46-6.67,2.55-10.23-1A11.66,11.66,0,0,1,241.28,88.9Z"/><path d="M267.75,89.59l3.54,3.54-14.73,14.74L253,104.32Z"/><path d="M266.56,103.29c4.91-4.91,11-4.41,15-.47a9.19,9.19,0,0,1,2.79,6.63l-4.14.38a5.26,5.26,0,0,0-1.56-3.87c-2.18-2.17-5.44-2-8.32.84s-3.32,5.94-.59,8.67a3.63,3.63,0,0,0,1.78,1l2.38-2.38-2.34-2.33,2.89-2.9,5.49,5.49L273,121.27a10.28,10.28,0,0,1-6.71-3.11C262.21,114.06,261.57,108.28,266.56,103.29Z"/><path d="M289.19,111l3.61,3.61-3.39,10.71-1.82,4.71.1.1a65,65,0,0,1,5-5.92l4.87-4.87,3.36,3.36-14.73,14.73-3.6-3.6L286,123.11l1.79-4.67-.1-.1c-1.49,1.8-3.21,4.12-5,5.9l-4.89,4.89-3.37-3.37Z"/><path d="M502.3,122.53l4.24-4.24c4.49-4.49,9.62-5.3,14.75-.17s4.47,10.41.18,14.71L517,137.26Zm15.9,7.86c2.38-2.37,3-5.15-.53-8.65s-6.16-2.79-8.54-.42l-.47.48,9.07,9.07Z"/><path d="M516.74,108.1l9.34-9.35,2.93,2.93-5.8,5.81,2.73,2.73,4.93-4.93,3,3-4.93,4.93,3.13,3.12,6-6,3,3-9.56,9.56Z"/><path d="M527.33,97.51l3.74-3.75,8.39,5c2,1.15,3.83,2.4,5.87,3.57l.09-.1c-1.18-2-2.39-3.86-3.56-5.86L536.81,88l3.61-3.6,10.29,19.16-4.24,4.24Z"/><path d="M541.94,82.89l9.35-9.34,2.92,2.93-5.8,5.8L551.15,85l4.93-4.93,3,3L554.12,88l3.12,3.13,6-6,3,3-9.56,9.57Z"/><path d="M554.41,70.42,558,66.88l11.76,11.76,5.72-5.72,3,3-9.27,9.26Z"/><path d="M572,67.41c-4.83-4.83-4.83-10.29-.81-14.31s9.51-4,14.32.81,5,10.45,1,14.47S576.82,72.24,572,67.41Zm9.9-9.9c-2.85-2.85-5.74-3.32-7.68-1.38s-1.44,4.81,1.41,7.66,5.86,3.48,7.8,1.54S584.76,60.38,581.89,57.51Z"/><path d="M580.94,43.89l5.17-5.17c3.25-3.24,7.07-4.77,10.71-1.12s2.34,7.76-.77,10.86l-1.72,1.73,4.89,4.89-3.55,3.54Zm12.14,2c1.72-1.72,1.74-3.36.3-4.81s-3-1-4.66.65l-1.44,1.45,4.26,4.26Z"/><path d="M87.62,229H81.46l-1.2,4.79h-5.1L81.63,213h6l6.47,20.84H88.83Zm-1-3.87-.45-1.76c-.56-2.07-1.09-4.56-1.65-6.69h-.11c-.5,2.18-1.06,4.62-1.6,6.69l-.44,1.76Z"/><path d="M96.27,213h13.3v4.15h-8.28v4.56h7.11v4.17h-7.11v8h-5Z"/><path d="M117.22,217.12h-5.63V213h16.3v4.15h-5.66v16.69h-5Z"/><path d="M131.11,213h13.21v4.15h-8.2V221h7v4.2h-7v4.43h8.51v4.2H131.11Z"/><path d="M160,233.81l-3.83-7.34h-2.41v7.34h-5V213h7.64c4.45,0,8.15,1.52,8.15,6.56a6.17,6.17,0,0,1-3.59,6l4.65,8.26Zm-6.24-11.29H156c2.38,0,3.64-1,3.64-3s-1.26-2.61-3.64-2.61h-2.24Z"/><path d="M168.57,213h13.22v4.15h-8.21V221h7v4.2h-7v4.43h8.51v4.2H168.57Z"/><path d="M186.21,213h13.3v4.15h-8.29v4.56h7.11v4.17h-7.11v8h-5Z"/><path d="M203.12,213h13.3v4.15h-8.29v4.56h7.12v4.17h-7.12v8h-5Z"/><path d="M220,213h13.22v4.15H225V221h7v4.2h-7v4.43h8.52v4.2H220Z"/><path d="M236.72,223.5c0-6.94,4.65-10.92,9.94-10.92A8.86,8.86,0,0,1,253,215.3l-2.63,3.19a5.19,5.19,0,0,0-3.62-1.62c-2.68,0-4.9,2.4-4.9,6.46s1.91,6.56,4.85,6.56a5.39,5.39,0,0,0,4-1.91l2.64,3.14a8.7,8.7,0,0,1-6.81,3.08C241.2,234.2,236.72,230.56,236.72,223.5Z"/><path d="M260,217.12h-5.63V213h16.3v4.15H265v16.69h-5Z"/><path d="M135.06,246.57h5v20.84h-5Z"/><path d="M144.86,246.57H150l5.18,10,2.05,4.62h.14a65.63,65.63,0,0,1-.68-7.7v-6.89h4.76v20.84h-5.09l-5.15-10.06-2-4.56H149c.23,2.32.65,5.18.65,7.7v6.92h-4.76Z"/><path d="M166.25,246.57h6c6.35,0,10.55,3.06,10.55,10.31s-4.2,10.53-10.27,10.53h-6.27Zm5.68,16.8c3.36,0,5.74-1.54,5.74-6.49s-2.38-6.33-5.74-6.33h-.67v12.82Z"/><path d="M186.66,246.57h13.21v4.15h-8.2v3.86h7v4.2h-7v4.43h8.51v4.2H186.66Z"/><path d="M203,264.8l2.83-3.44a8.43,8.43,0,0,0,5.07,2.13c1.85,0,2.71-.7,2.71-1.82s-1.14-1.6-2.94-2.36L208,258.19a6.08,6.08,0,0,1-4.22-5.71c0-3.5,3.13-6.3,7.56-6.3a9.7,9.7,0,0,1,6.77,2.75l-2.49,3.13a6.8,6.8,0,0,0-4.28-1.59c-1.54,0-2.5.61-2.5,1.73s1.32,1.6,3.17,2.33l2.6,1c2.58,1,4.12,2.77,4.12,5.71,0,3.48-2.91,6.53-7.95,6.53A11.67,11.67,0,0,1,203,264.8Z"/><path d="M222.19,246.57h5v20.84h-5Z"/><path d="M231,257.1c0-6.94,4.67-10.92,10.25-10.92A9.19,9.19,0,0,1,248,248.9l-2.66,3.19a5.31,5.31,0,0,0-3.84-1.62c-3.08,0-5.29,2.4-5.29,6.46s1.85,6.56,5.71,6.56a3.52,3.52,0,0,0,2-.54v-3.36h-3.3v-4.08h7.75v9.74a10.29,10.29,0,0,1-6.94,2.55C235.57,267.8,231,264.16,231,257.1Z"/><path d="M252.51,246.57h5.1l5.18,10,2,4.62H265a65.69,65.69,0,0,1-.67-7.7v-6.89h4.76v20.84H264l-5.16-10.06-2-4.56h-.14c.22,2.32.64,5.18.64,7.7v6.92h-4.76Z"/><path d="M92.1,280.17h7.31c4.59,0,8.37,1.63,8.37,6.78,0,5-3.83,7.14-8.23,7.14H97.11V301h-5Zm7.2,10c2.43,0,3.61-1.14,3.61-3.19s-1.34-2.83-3.75-2.83h-2v6Z"/><path d="M111.34,280.17h5v7.93h6.86v-7.93h5V301h-5v-8.57h-6.86V301h-5Z"/><path d="M132.06,290.48c0-6.83,3.86-10.7,9.55-10.7s9.54,3.89,9.54,10.7-3.86,10.92-9.54,10.92S132.06,297.31,132.06,290.48Zm14,0c0-4-1.71-6.41-4.45-6.41s-4.43,2.38-4.43,6.41,1.68,6.61,4.43,6.61S146.06,294.54,146.06,290.48Z"/><path d="M158.13,284.32H152.5v-4.15h16.29v4.15h-5.65V301h-5Z"/><path d="M170.14,290.48c0-6.83,3.86-10.7,9.55-10.7s9.54,3.89,9.54,10.7-3.86,10.92-9.54,10.92S170.14,297.31,170.14,290.48Zm14,0c0-4-1.71-6.41-4.45-6.41s-4.43,2.38-4.43,6.41,1.68,6.61,4.43,6.61S184.14,294.54,184.14,290.48Z"/><path d="M191.78,298.4l2.83-3.44a8.43,8.43,0,0,0,5.07,2.13c1.85,0,2.71-.7,2.71-1.82s-1.14-1.6-2.94-2.35l-2.66-1.13a6.08,6.08,0,0,1-4.22-5.71c0-3.5,3.13-6.3,7.56-6.3a9.7,9.7,0,0,1,6.77,2.75l-2.49,3.13a6.8,6.8,0,0,0-4.28-1.59c-1.54,0-2.5.61-2.5,1.73s1.32,1.6,3.17,2.33l2.6,1c2.58,1,4.12,2.77,4.12,5.72,0,3.47-2.91,6.52-8,6.52A11.67,11.67,0,0,1,191.78,298.4Z"/><path d="M211,280.17h5v7.93h6.86v-7.93h5V301h-5v-8.57H216V301h-5Z"/><path d="M231.71,290.48c0-6.83,3.86-10.7,9.55-10.7s9.54,3.89,9.54,10.7-3.86,10.92-9.54,10.92S231.71,297.31,231.71,290.48Zm14,0c0-4-1.71-6.41-4.45-6.41s-4.43,2.38-4.43,6.41,1.68,6.61,4.43,6.61S245.71,294.54,245.71,290.48Z"/><path d="M254.67,280.17H262c4.59,0,8.37,1.63,8.37,6.78,0,5-3.84,7.14-8.23,7.14h-2.44V301h-5Zm7.19,10c2.44,0,3.62-1.14,3.62-3.19s-1.35-2.83-3.76-2.83h-2v6Z"/><path d="M81.27,313.77h5v20.84h-5Z"/><path d="M91.07,313.77h5v16.64h8.09v4.2H91.07Z"/><path d="M107.78,313.77h5v16.64h8.1v4.2H107.78Z"/><path d="M123.18,324.81v-11h5v11.57c0,4,1.17,5.35,3.47,5.35s3.53-1.4,3.53-5.35V313.77H140v11c0,7-2.8,10.19-8.34,10.19S123.18,331.83,123.18,324.81Z"/><path d="M143,332l2.83-3.44a8.45,8.45,0,0,0,5.07,2.13c1.85,0,2.72-.7,2.72-1.82s-1.15-1.6-2.94-2.36L148,325.39a6.08,6.08,0,0,1-4.23-5.71c0-3.5,3.14-6.3,7.56-6.3a9.71,9.71,0,0,1,6.78,2.75l-2.5,3.13a6.8,6.8,0,0,0-4.28-1.59c-1.54,0-2.49.61-2.49,1.73s1.31,1.6,3.16,2.33l2.61,1c2.57,1,4.11,2.77,4.11,5.71,0,3.48-2.91,6.53-8,6.53A11.67,11.67,0,0,1,143,332Z"/><path d="M165.6,317.92H160v-4.15h16.3v4.15h-5.66v16.69h-5Z"/><path d="M190.75,334.61l-3.84-7.34H184.5v7.34h-5V313.77h7.64c4.45,0,8.15,1.52,8.15,6.56a6.18,6.18,0,0,1-3.58,6l4.64,8.26Zm-6.25-11.29h2.24c2.38,0,3.64-1,3.64-3s-1.26-2.61-3.64-2.61H184.5Z"/><path d="M208.83,329.82h-6.16l-1.2,4.79h-5.1l6.47-20.84h6l6.47,20.84H210Zm-1-3.87-.45-1.76c-.56-2.07-1.09-4.56-1.65-6.69h-.11c-.5,2.18-1.07,4.62-1.6,6.69l-.44,1.76Z"/><path d="M219.11,317.92h-5.63v-4.15h16.3v4.15h-5.66v16.69h-5Z"/><path d="M231.12,324.08c0-6.83,3.86-10.7,9.55-10.7s9.55,3.89,9.55,10.7S246.35,335,240.67,335,231.12,330.91,231.12,324.08Zm14,0c0-4-1.71-6.41-4.45-6.41s-4.42,2.38-4.42,6.41,1.67,6.61,4.42,6.61S245.12,328.14,245.12,324.08Z"/><path d="M265.34,334.61l-3.84-7.34h-2.41v7.34h-5V313.77h7.64c4.46,0,8.15,1.52,8.15,6.56a6.18,6.18,0,0,1-3.58,6l4.65,8.26Zm-6.25-11.29h2.24c2.38,0,3.64-1,3.64-3s-1.26-2.61-3.64-2.61h-2.24Z"/><path d="M544.16,233.81l-3.83-7.34h-2.41v7.34h-5V213h7.64c4.45,0,8.15,1.52,8.15,6.56a6.17,6.17,0,0,1-3.59,6l4.65,8.26Zm-6.24-11.29h2.24c2.38,0,3.64-1,3.64-3s-1.26-2.61-3.64-2.61h-2.24Z"/><path d="M552.73,213H566v4.15h-8.21V221h7v4.2h-7v4.43h8.51v4.2H552.73Z"/><path d="M580.2,229H574l-1.21,4.79h-5.09L574.21,213h6l6.46,20.84H581.4Zm-1-3.87-.44-1.76c-.56-2.07-1.09-4.56-1.66-6.69H577c-.5,2.18-1.06,4.62-1.59,6.69l-.45,1.76Z"/><path d="M587.56,223.5c0-6.94,4.65-10.92,9.94-10.92a8.86,8.86,0,0,1,6.33,2.72l-2.63,3.19a5.19,5.19,0,0,0-3.62-1.62c-2.68,0-4.9,2.4-4.9,6.46s1.91,6.56,4.85,6.56a5.39,5.39,0,0,0,4-1.91l2.64,3.14a8.7,8.7,0,0,1-6.81,3.08C592,234.2,587.56,230.56,587.56,223.5Z"/><path d="M610.86,217.12h-5.63V213h16.29v4.15h-5.65v16.69h-5Z"/><path d="M620.54,231.09a3,3,0,1,1,3,3.11A3,3,0,0,1,620.54,231.09Z"/><path d="M628.83,230.36l3.42-2.55a3.28,3.28,0,0,0,2.8,2.08c1.62,0,2.49-.82,2.49-3.53V213h5v13.78c0,4.09-2.15,7.45-6.83,7.45A7.28,7.28,0,0,1,628.83,230.36Z"/><path d="M645.91,231.2l2.83-3.44a8.43,8.43,0,0,0,5.07,2.13c1.85,0,2.72-.7,2.72-1.82s-1.15-1.6-2.95-2.36l-2.66-1.12a6.08,6.08,0,0,1-4.22-5.71c0-3.5,3.13-6.3,7.56-6.3a9.7,9.7,0,0,1,6.77,2.75l-2.49,3.13a6.8,6.8,0,0,0-4.28-1.59c-1.54,0-2.5.61-2.5,1.73s1.32,1.6,3.17,2.33l2.6,1c2.58,1,4.12,2.77,4.12,5.71,0,3.48-2.91,6.53-7.95,6.53A11.67,11.67,0,0,1,645.91,231.2Z"/><path d="M532.91,246.57H538l5.18,10,2,4.62h.15a63.55,63.55,0,0,1-.68-7.7v-6.89h4.76v20.84h-5.09l-5.15-10.06-2.05-4.56H537c.23,2.32.65,5.18.65,7.7v6.92h-4.76Z"/><path d="M554.3,246.57h13.21v4.15h-8.2v3.86h7v4.2h-7v4.43h8.51v4.2H554.3Z"/><path d="M575.6,256.68l-5.4-10.11h5.57l1.68,3.73c.45,1,.93,2.07,1.51,3.41h.12c.47-1.34.92-2.43,1.34-3.41l1.51-3.73h5.29l-5.37,10.34,5.74,10.5H582l-1.94-4.06c-.5-1.1-1-2.19-1.54-3.48h-.11c-.5,1.29-.95,2.38-1.43,3.48l-1.79,4.06h-5.35Z"/><path d="M593.72,250.72h-5.63v-4.15h16.3v4.15h-5.66v16.69h-5Z"/><path d="M603.41,264.69a3,3,0,1,1,5.94,0,3,3,0,1,1-5.94,0Z"/><path d="M611.7,264l3.41-2.55a3.28,3.28,0,0,0,2.8,2.08c1.63,0,2.49-.82,2.49-3.53V246.57h5v13.78c0,4.09-2.16,7.45-6.84,7.45A7.26,7.26,0,0,1,611.7,264Z"/><path d="M628.78,264.8l2.83-3.44a8.4,8.4,0,0,0,5.06,2.13c1.85,0,2.72-.7,2.72-1.82s-1.15-1.6-2.94-2.36l-2.66-1.12a6.09,6.09,0,0,1-4.23-5.71c0-3.5,3.14-6.3,7.56-6.3a9.71,9.71,0,0,1,6.78,2.75l-2.5,3.13a6.78,6.78,0,0,0-4.28-1.59c-1.54,0-2.49.61-2.49,1.73s1.32,1.6,3.16,2.33l2.61,1c2.57,1,4.11,2.77,4.11,5.71,0,3.48-2.91,6.53-8,6.53A11.64,11.64,0,0,1,628.78,264.8Z"/><path d="M532.91,280.17H538l5.18,10,2,4.62h.15a63.55,63.55,0,0,1-.68-7.7v-6.89h4.76V301h-5.09L539.21,291l-2.05-4.57H537c.23,2.32.65,5.18.65,7.7V301h-4.76Z"/><path d="M553.34,290.48c0-6.83,3.87-10.7,9.55-10.7s9.55,3.89,9.55,10.7-3.86,10.92-9.55,10.92S553.34,297.31,553.34,290.48Zm14,0c0-4-1.7-6.41-4.45-6.41s-4.42,2.38-4.42,6.41,1.68,6.61,4.42,6.61S567.34,294.54,567.34,290.48Z"/><path d="M576.3,280.17h6c6.35,0,10.55,3.06,10.55,10.31S588.65,301,582.58,301H576.3ZM582,297c3.36,0,5.74-1.54,5.74-6.49s-2.38-6.33-5.74-6.33h-.67V297Z"/><path d="M596.72,280.17h13.21v4.15h-8.2v3.86h7v4.2h-7v4.43h8.51V301H596.72Z"/><path d="M613.91,298.29a3,3,0,1,1,3,3.11A3,3,0,0,1,613.91,298.29Z"/><path d="M622.2,297.56l3.41-2.55a3.28,3.28,0,0,0,2.8,2.08c1.63,0,2.49-.82,2.49-3.53V280.17h5V294c0,4.09-2.16,7.45-6.84,7.45A7.26,7.26,0,0,1,622.2,297.56Z"/><path d="M639.28,298.4,642.1,295a8.45,8.45,0,0,0,5.07,2.13c1.85,0,2.72-.7,2.72-1.82s-1.15-1.6-2.94-2.35l-2.66-1.13a6.08,6.08,0,0,1-4.23-5.71c0-3.5,3.14-6.3,7.56-6.3a9.71,9.71,0,0,1,6.78,2.75l-2.5,3.13a6.8,6.8,0,0,0-4.28-1.59c-1.54,0-2.49.61-2.49,1.73s1.31,1.6,3.16,2.33l2.61,1c2.57,1,4.11,2.77,4.11,5.72,0,3.47-2.91,6.52-8,6.52A11.62,11.62,0,0,1,639.28,298.4Z"/><path d="M536.94,317.92h-5.63v-4.15h16.3v4.15H542v16.69h-5Z"/><path d="M553.82,327.24l-6.27-13.47h5.32l1.74,4.62c.56,1.57,1.09,3,1.68,4.65h.11c.59-1.62,1.14-3.08,1.73-4.65l1.74-4.62h5.24l-6.31,13.47v7.37h-5Z"/><path d="M567.23,313.77h7.31c4.59,0,8.37,1.63,8.37,6.78,0,5-3.83,7.14-8.23,7.14h-2.43v6.92h-5Zm7.2,10c2.44,0,3.61-1.15,3.61-3.19s-1.34-2.83-3.75-2.83h-2v6Z"/><path d="M586.47,313.77h13.22v4.15h-8.21v3.86h7V326h-7v4.43H600v4.2H586.47Z"/><path d="M602.79,332l2.83-3.44a8.43,8.43,0,0,0,5.07,2.13c1.85,0,2.71-.7,2.71-1.82s-1.14-1.6-2.94-2.36l-2.66-1.12a6.08,6.08,0,0,1-4.22-5.71c0-3.5,3.13-6.3,7.56-6.3a9.7,9.7,0,0,1,6.77,2.75l-2.49,3.13a6.8,6.8,0,0,0-4.28-1.59c-1.54,0-2.5.61-2.5,1.73s1.32,1.6,3.17,2.33l2.6,1c2.58,1,4.12,2.77,4.12,5.71,0,3.48-2.91,6.53-7.95,6.53A11.67,11.67,0,0,1,602.79,332Z"/><path d="M621.05,324.3c0-6.94,4.65-10.92,9.94-10.92a8.88,8.88,0,0,1,6.33,2.72l-2.64,3.19a5.14,5.14,0,0,0-3.61-1.62c-2.69,0-4.9,2.4-4.9,6.46s1.91,6.56,4.85,6.56a5.39,5.39,0,0,0,4-1.91l2.63,3.14a8.66,8.66,0,0,1-6.8,3.08C625.53,335,621.05,331.36,621.05,324.3Z"/><path d="M651.93,334.61l-3.83-7.34h-2.41v7.34h-5V313.77h7.64c4.45,0,8.15,1.52,8.15,6.56a6.17,6.17,0,0,1-3.59,6l4.65,8.26Zm-6.24-11.29h2.24c2.38,0,3.64-1,3.64-3s-1.26-2.61-3.64-2.61h-2.24Z"/><path d="M660.5,313.77h5v20.84h-5Z"/><path d="M670.3,313.77h7.31c4.59,0,8.37,1.63,8.37,6.78,0,5-3.84,7.14-8.23,7.14h-2.44v6.92h-5Zm7.2,10c2.43,0,3.61-1.15,3.61-3.19s-1.35-2.83-3.75-2.83h-2.05v6Z"/><path d="M693.15,317.92h-5.63v-4.15h16.3v4.15h-5.66v16.69h-5Z"/><path d="M174.91,416.17h13.22v4.14h-8.21v3.87h7v4.2h-7v4.42h8.52V437H174.91Z"/><path d="M196.58,420.31H191v-4.14h16.29v4.14H201.6V437h-5Z"/><path d="M208.6,426.7c0-6.95,4.64-10.92,9.94-10.92a8.87,8.87,0,0,1,6.32,2.71l-2.63,3.19a5.16,5.16,0,0,0-3.61-1.62c-2.69,0-4.9,2.41-4.9,6.47s1.9,6.55,4.84,6.55a5.42,5.42,0,0,0,4-1.9l2.63,3.13a8.65,8.65,0,0,1-6.8,3.08C213.08,437.39,208.6,433.75,208.6,426.7Z"/><path d="M226,427.14h7.93v3.5H226Z"/><path d="M241.5,416.17h5.29l2.38,9.49c.61,2.24,1,4.4,1.62,6.66h.14c.59-2.26,1-4.42,1.63-6.66l2.35-9.49H260L253.73,437h-6Z"/><path d="M261.71,427.2v-11h5v11.56c0,3.95,1.18,5.35,3.48,5.35s3.52-1.4,3.52-5.35V416.17h4.82v11c0,7-2.8,10.19-8.34,10.19S261.71,434.23,261.71,427.2Z"/><path d="M283.19,416.17H296.4v4.14h-8.2v3.87h7v4.2h-7v4.42h8.51V437H283.19Z"/><path d="M300.38,434.28a3,3,0,1,1,3,3.11A3,3,0,0,1,300.38,434.28Z"/><path d="M308.67,433.56l3.41-2.55a3.27,3.27,0,0,0,2.8,2.07c1.63,0,2.49-.81,2.49-3.53V416.17h5v13.77c0,4.09-2.16,7.45-6.84,7.45A7.27,7.27,0,0,1,308.67,433.56Z"/><path d="M325.75,434.4l2.82-3.45a8.45,8.45,0,0,0,5.07,2.13c1.85,0,2.72-.7,2.72-1.82s-1.15-1.6-2.94-2.35l-2.66-1.12a6.1,6.1,0,0,1-4.23-5.71c0-3.5,3.14-6.3,7.56-6.3a9.7,9.7,0,0,1,6.78,2.74l-2.5,3.14a6.75,6.75,0,0,0-4.28-1.6c-1.54,0-2.49.62-2.49,1.74s1.31,1.59,3.16,2.32l2.61,1c2.57,1,4.11,2.77,4.11,5.71,0,3.47-2.91,6.52-8,6.52A11.66,11.66,0,0,1,325.75,434.4Z"/><path d="M347.47,436.8a2.78,2.78,0,0,1-3-2.8,2.87,2.87,0,0,1,3.1-2.8c2.19,0,3.39,1.74,3.39,4.65,0,3.61-2.1,6.33-6,7.51l-1-2.66c2.41-.84,3.7-2.33,3.7-3.9Z"/><path d="M361.19,416.17h7.31c4.59,0,8.37,1.62,8.37,6.77,0,5-3.83,7.14-8.23,7.14h-2.43V437h-5Zm7.2,10c2.44,0,3.61-1.15,3.61-3.2s-1.34-2.82-3.75-2.82h-2v6Z"/><path d="M380.43,416.17h5v7.92h6.86v-7.92h5V437h-5v-8.57h-6.86V437h-5Z"/><path d="M402.1,416.17h7.31c4.59,0,8.37,1.62,8.37,6.77,0,5-3.83,7.14-8.23,7.14h-2.44V437h-5Zm7.2,10c2.43,0,3.61-1.15,3.61-3.2s-1.34-2.82-3.75-2.82h-2.05v6Z"/><path d="M419.54,436.8a2.78,2.78,0,0,1-3-2.8,2.87,2.87,0,0,1,3.11-2.8c2.18,0,3.38,1.74,3.38,4.65,0,3.61-2.1,6.33-6,7.51l-1-2.66c2.41-.84,3.7-2.33,3.7-3.9Z"/><path d="M432.31,426.7c0-6.95,4.65-10.92,9.94-10.92a8.9,8.9,0,0,1,6.33,2.71L446,421.68a5.18,5.18,0,0,0-3.61-1.62c-2.69,0-4.9,2.41-4.9,6.47s1.9,6.55,4.84,6.55a5.44,5.44,0,0,0,4-1.9l2.63,3.13a8.65,8.65,0,0,1-6.81,3.08C436.79,437.39,432.31,433.75,432.31,426.7Z"/><path d="M449.79,426.47c0-6.83,3.86-10.69,9.54-10.69s9.55,3.89,9.55,10.69-3.86,10.92-9.55,10.92S449.79,433.3,449.79,426.47Zm14,0c0-4-1.71-6.41-4.46-6.41s-4.42,2.38-4.42,6.41,1.68,6.61,4.42,6.61S463.79,430.53,463.79,426.47Z"/><path d="M472.75,416.17h6c6.35,0,10.55,3.05,10.55,10.3S485.09,437,479,437h-6.27Zm5.68,16.8c3.36,0,5.74-1.54,5.74-6.5s-2.38-6.33-5.74-6.33h-.67V433Z"/><path d="M493.16,416.17h13.21v4.14h-8.2v3.87h7v4.2h-7v4.42h8.51V437H493.16Z"/><path d="M510.8,416.17h5V437h-5Z"/><path d="M519.64,426.7c0-6.95,4.68-10.92,10.25-10.92a9.21,9.21,0,0,1,6.67,2.71l-2.66,3.19a5.31,5.31,0,0,0-3.84-1.62c-3.08,0-5.29,2.41-5.29,6.47s1.85,6.55,5.71,6.55a3.6,3.6,0,0,0,2-.53v-3.36h-3.31V425.1h7.76v9.74a10.31,10.31,0,0,1-6.94,2.55C524.18,437.39,519.64,433.75,519.64,426.7Z"/><path d="M541.12,416.17h5.1l5.18,10,2,4.62h.14a65.88,65.88,0,0,1-.67-7.7v-6.89h4.76V437h-5.1L547.42,427l-2-4.57h-.14c.22,2.33.64,5.18.64,7.7V437h-4.76Z"/><path d="M562.51,416.17h5V437h-5Z"/><path d="M576.34,420.31h-5.63v-4.14H587v4.14h-5.65V437h-5Z"/><path d="M590.23,416.17h13.22v4.14h-8.21v3.87h7v4.2h-7v4.42h8.51V437H590.23Z"/><path d="M619.13,437l-3.84-7.34h-2.41V437h-5V416.17h7.64c4.46,0,8.15,1.51,8.15,6.55a6.18,6.18,0,0,1-3.58,6l4.65,8.26Zm-6.25-11.28h2.24c2.38,0,3.64-1,3.64-3s-1.26-2.6-3.64-2.6h-2.24Z"/></svg>